<svg xmlns="http://www.w3.org/2000/svg" viewBox="-30 -20 480 156"><path d="M-30-20h480v156H-30z"/><path fill="#fff" d="M13 113.9H0V49.1h13V75h25.9V49.1h13v64.8h-13V88H13zm61.9-18.2 5.5-13.6-4.6-11.2-18.5 43.4h10l4.1-10h18.3l-3.6-8.6zm41.1 9.5c-1.8.8-3.6 1.1-5.6 1.1s-3.8-.4-5.5-1.1-3.2-1.8-4.5-3q-1.95-1.95-3-4.5c-1.05-2.55-1.1-3.5-1.1-5.5 0-1.9.4-3.8 1.1-5.5s1.8-3.2 3-4.5q1.95-1.95 4.5-3c2.55-1.05 3.6-1.1 5.5-1.1s3.8.4 5.6 1.1c1.8.8 3.3 1.8 4.6 3.2l4.7-7.8c-2.1-1.8-4.4-3.2-7-4.1s-5.2-1.4-8-1.4c-2.1 0-4.1.3-6.1.8s-3.8 1.3-5.5 2.3-3.3 2.2-4.7 3.6-2.6 3-3.6 4.7c-.2.3-.4.7-.6 1l13.6 32.6c.2.1.5.2.7.2 2 .5 4 .8 6.1.8 2.8 0 5.4-.5 8-1.4 2.6-1 4.9-2.3 7-4.1l-4.7-7.8c-1.2 1.6-2.8 2.7-4.5 3.4m23.4 9.1h-8.9V69h8.9v23.1L156 69.8h10.1L152 88.6l14.1 25.7H156l-9.8-18-6.8 9.1z"/><path fill="#e44" d="m113.5 0-6.3 23.6 21.5 11.7-49.9 21.5-15.2-35.3zm111.1 108.1c-3 2.6-6.3 4.5-10 5.9s-7.5 2.1-11.5 2.1c-3 0-6-.4-8.8-1.2s-5.5-1.9-7.9-3.4c-2.5-1.4-4.7-3.2-6.7-5.2s-3.8-4.3-5.2-6.7c-1.4-2.5-2.6-5.1-3.4-7.9s-1.2-5.7-1.2-8.8.4-6 1.2-8.8 1.9-5.5 3.4-7.9c1.4-2.5 3.2-4.7 5.2-6.7s4.3-3.8 6.7-5.2c2.5-1.4 5.1-2.6 7.9-3.4s5.7-1.2 8.8-1.2c4 0 7.8.7 11.5 2 3.7 1.4 7 3.3 10 5.9l-6.8 11.2c-1.9-2-4.1-3.6-6.7-4.7s-5.2-1.6-8.1-1.6c-2.8 0-5.5.5-8 1.6s-4.6 2.5-6.5 4.4c-1.8 1.8-3.3 4-4.4 6.5s-1.6 5.1-1.6 7.9.5 5.4 1.6 7.9 2.5 4.6 4.4 6.5c1.8 1.8 4 3.3 6.5 4.4s5.1 1.6 8 1.6c2.8 0 5.5-.5 8.1-1.6s4.8-2.6 6.7-4.7zm34.8 6.6h-30.8V69.8h30.8v9h-21.8v9h14.7v9h-14.7v9h21.8zm41.8 0h-9.6l-17.3-29.6v29.6h-9V69.8h9.6l17.3 29.6V69.8h9zm27.6 0h-9V78.8h-13.5v-9h35.9v9h-13.5v35.9zm49.6 0h-30.8V69.8h30.8v9h-21.8v9h14.7v9h-14.7v9h21.8zm14.8 0h-9V69.8h18q2.4 0 4.8.6c1.5.4 2.9 1 4.3 1.8s2.5 1.7 3.6 2.8 2 2.3 2.8 3.6 1.4 2.8 1.8 4.3.6 3.1.6 4.8q0 2.25-.6 4.5c-.6 2.25-.9 2.8-1.7 4.2-.7 1.3-1.6 2.5-2.6 3.6s-2.2 2.1-3.5 2.9l5 11.7h-9.5l-3.9-9-10 .1zm0-35.9v18h9c1.2 0 2.4-.2 3.5-.7s2-1.1 2.8-1.9 1.5-1.8 1.9-2.9c.5-1.1.7-2.3.7-3.5s-.2-2.4-.7-3.5-1.1-2-1.9-2.9c-.8-.8-1.8-1.5-2.8-1.9-1.1-.5-2.2-.7-3.5-.7z"/></svg>